HIERARCHY
ROOT root
{
	OFFSET	0	13.1	24.9
	CHANNELS 6  Xposition Yposition Zposition Xrotation Yrotation Zrotation
	JOINT spine_1
	{
		OFFSET	0	9.99999	0
		CHANNELS 3  Xrotation Yrotation Zrotation
		JOINT spine_2
		{
			OFFSET	0	112	-10
			CHANNELS 3  Xrotation Yrotation Zrotation
			JOINT spine_3
			{
				OFFSET	0	206.5	19.3
				CHANNELS 3  Xrotation Yrotation Zrotation
				JOINT spine_4
				{
					OFFSET	0	110.4	14.6
					CHANNELS 3  Xrotation Yrotation Zrotation
					JOINT neck_1
					{
						OFFSET	0	71.8	-50.3
						CHANNELS 3  Xrotation Yrotation Zrotation
						JOINT neck_2
						{
							OFFSET	0	86.2	-25.8
							CHANNELS 3  Xrotation Yrotation Zrotation
							JOINT head_ee
							{
								OFFSET	0	179.8	-8.7
								CHANNELS 3  Xrotation Yrotation Zrotation
								End Site
								{
									OFFSET	1	0	0
								}
							}
						}
					}
					JOINT left_clavicle
					{
						OFFSET	-43.2	22.4	-70.8
						CHANNELS 3  Xrotation Yrotation Zrotation
						JOINT left_shoulder
						{
							OFFSET	-93.9	-5.79999	48.7
							CHANNELS 3  Xrotation Yrotation Zrotation
							JOINT left_elbow
							{
								OFFSET	-291.4	-30.8	15.2
								CHANNELS 3  Xrotation Yrotation Zrotation
								JOINT left_lowarm_twist
								{
									OFFSET	-110.7	-3.89999	13.6
									CHANNELS 3  Xrotation Yrotation Zrotation
									JOINT left_hand
									{
										OFFSET	-110.7	-3.89999	13.6
										CHANNELS 3  Xrotation Yrotation Zrotation
										JOINT left_ee
										{
											OFFSET	-80.8	-5.10001	12.1
											CHANNELS 3  Xrotation Yrotation Zrotation
											End Site
											{
												OFFSET	1	0	0
											}
										}
									}
								}
							}
						}
					}
					JOINT right_clavicle
					{
						OFFSET	43.2	22.4	-70.8
						CHANNELS 3  Xrotation Yrotation Zrotation
						JOINT right_shoulder
						{
							OFFSET	93.9	-5.79999	48.7
							CHANNELS 3  Xrotation Yrotation Zrotation
							JOINT right_elbow
							{
								OFFSET	291.4	-30.8	15.2
								CHANNELS 3  Xrotation Yrotation Zrotation
								JOINT right_lowarm_twist
								{
									OFFSET	110.7	-3.89999	13.6
									CHANNELS 3  Xrotation Yrotation Zrotation
									JOINT right_hand
									{
										OFFSET	110.7	-3.89999	13.6
										CHANNELS 3  Xrotation Yrotation Zrotation
										JOINT right_ee
										{
											OFFSET	80.8	-5.10001	12.1
											CHANNELS 3  Xrotation Yrotation Zrotation
											End Site
											{
												OFFSET	1	0	0
											}
										}
									}
								}
							}
						}
					}
				}
			}
		}
	}
	JOINT left_hip
	{
		OFFSET	-82.8	-127.5	0.300001
		CHANNELS 3  Xrotation Yrotation Zrotation
		JOINT left_knee
		{
			OFFSET	-28.2	-396.7	2.2
			CHANNELS 3  Xrotation Yrotation Zrotation
			JOINT left_ankle
			{
				OFFSET	-11.7	-411.3	35.4
				CHANNELS 3  Xrotation Yrotation Zrotation
				JOINT left_toes
				{
					OFFSET	0	-60	-88.6
					CHANNELS 3  Xrotation Yrotation Zrotation
					JOINT left_foot_ee
					{
						OFFSET	-22.5	-16.5	-42.2
						CHANNELS 3  Xrotation Yrotation Zrotation
						End Site
						{
							OFFSET	1	0	0
						}
					}
				}
			}
		}
	}
	JOINT right_hip
	{
		OFFSET	82.8	-127.5	0.300001
		CHANNELS 3  Xrotation Yrotation Zrotation
		JOINT right_knee
		{
			OFFSET	28.2	-396.7	2.2
			CHANNELS 3  Xrotation Yrotation Zrotation
			JOINT right_ankle
			{
				OFFSET	11.7	-411.3	35.4
				CHANNELS 3  Xrotation Yrotation Zrotation
				JOINT right_toes
				{
					OFFSET	0	-60	-88.6
					CHANNELS 3  Xrotation Yrotation Zrotation
					JOINT right_foot_ee
					{
						OFFSET	22.5	-16.5	-42.2
						CHANNELS 3  Xrotation Yrotation Zrotation
						End Site
						{
							OFFSET	1	0	0
						}
					}
				}
			}
		}
	}
}
MOTION
Frames: 5
Frame Time: 0.02
3574.42 741.953 -1474.73 -35.9402690922 80.047574188 30.8358889537 3.16324 0.728637 4.3144 3.17347 0.45289 4.35193 3.20432 -0.228012 4.36945 3.17799 0.464254 4.35073 -5.95844 20.2024 -2.37091 -5.72856 39.15 1.44156 -0.0 0.0 -0.0 -5.45419 9.25736 -8.51103 -26.4986 -32.0234 57.7628 1.64076 -39.1006 0.582681 1.40093 0.0472495 -0.172683 -1.46813 10.9475 -4.8319 -0.0 0.0 -0.0 11.1421 8.18007 -22.3477 -23.5389 52.3615 -69.2802 0.598588 16.5164 -0.0868795 36.1612 0.164798 4.54066 -1.33887 11.3611 13.9914 0.0 0.0 0.0 7.24372 66.6679 -6.22285 -7.85425 0.242812 1.17999 2.33523 -29.9404 -0.432622 21.2374 -0.0 -0.0 -0.0 0.0 -0.0 -5.1757 44.554 7.93542 7.96521 0.408913 1.15233 14.4655 -21.4587 2.08311 4.53473 -0.0 -0.0 0.0 0.0 0.0 
3576.41511228 741.627 -1471.62644929 -32.8310049816 78.8529617564 27.5802325378 3.16674 0.698682 4.34885 3.17716 0.42081 4.3844 3.20572 -0.26474 4.39657 3.17901 0.432254 4.38329 -6.39772 19.9278 -2.69936 -6.2476 38.9367 1.2302 -0.0 0.0 -0.0 -5.49037 9.25441 -8.5769 -26.0871 -32.0063 57.9952 1.6558 -39.3567 0.592192 0.89734 0.0307516 -0.110479 -1.20976 10.304 -3.47245 -0.0 0.0 -0.0 11.1088 8.45268 -22.2762 -23.4341 52.3886 -69.1342 0.601255 16.586 -0.0876394 35.9911 0.157332 4.52023 -1.27241 12.183 13.8824 0.0 0.0 0.0 7.46512 66.6596 -6.0331 -8.32811 0.252258 1.2521 3.83384 -29.9361 -0.706596 21.1335 -0.0 -0.0 -0.0 0.0 -0.0 -5.20811 46.1525 8.4927 7.85031 0.40188 1.13613 14.6821 -20.9363 2.10797 6.5021 -0.0 -0.0 0.0 0.0 0.0 
3578.13235786 741.388 -1470.31107489 -27.5172077568 76.8199084972 21.9991077054 3.18973 0.768546 4.34509 3.20009 0.490772 4.38508 3.23399 -0.193346 4.40818 3.20724 0.504587 4.38352 -6.87374 19.5441 -3.0869 -6.80653 38.5579 0.948364 -0.0 0.0 -0.0 -5.54304 9.67888 -8.56603 -24.6665 -30.3219 59.2356 1.68649 -39.8733 0.611759 0.382031 0.0133038 -0.0469769 -1.01733 9.7145 -2.50196 -0.0 0.0 -0.0 11.0731 8.61942 -22.1983 -23.3896 52.3727 -68.8183 0.596262 16.4557 -0.0862195 35.7401 0.146428 4.49005 -1.33662 12.8194 14.5994 0.0 0.0 0.0 7.82758 66.6672 -6.12112 -9.55239 0.273896 1.43871 4.83952 -29.1656 -0.879544 21.1748 -0.0 -0.0 -0.0 0.0 -0.0 -6.08395 47.4969 9.55166 7.75283 0.39594 1.12237 14.6968 -19.3946 2.09733 8.42173 -0.0 -0.0 0.0 0.0 0.0 
3577.23852807 740.239 -1470.03086183 -24.64625712 75.0033780345 18.9044028653 3.1675 0.85347 4.415 3.17816 0.571089 4.46024 3.21895 -0.126576 4.4948 3.19124 0.584163 4.45855 -7.20485 19.2638 -3.34896 -7.19289 38.2581 0.754462 -0.0 0.0 -0.0 -5.91454 10.0498 -9.13661 -23.9309 -29.0519 59.9187 1.71496 -40.3458 0.630104 0.0371788 0.00130832 -0.00456793 -0.880267 9.37476 -1.77108 -0.0 0.0 -0.0 11.1129 8.66168 -22.2866 -22.7324 52.5126 -69.0203 0.597624 16.4913 -0.0866058 35.6948 0.144478 4.48461 -1.40165 13.2349 15.2285 0.0 0.0 0.0 7.09865 66.3524 -5.58296 -9.28297 0.269477 1.39761 6.321 -29.0159 -1.14019 21.1711 -0.0 -0.0 -0.0 0.0 -0.0 -5.89201 48.3874 9.76811 7.81297 0.399602 1.13086 14.6985 -19.3247 2.09703 9.88937 -0.0 -0.0 0.0 0.0 0.0 
3577.5702417 741.402 -1468.01446002 -22.1608150859 73.3499932603 16.2868168714 3.13532 0.86842 4.4041 3.14591 0.5867 4.45031 3.18795 -0.111998 4.48735 3.16035 0.597385 4.44889 -8.40305 19.2816 -1.83746 -8.64499 37.3899 2.73285 -0.0 0.0 -0.0 -5.85872 10.291 -8.97432 -22.9835 -27.6825 60.7232 1.70643 -40.2049 0.624586 -0.0261186 -0.000921098 0.00320847 -0.694486 9.24 -0.6352 -0.0 0.0 -0.0 11.1343 8.6899 -22.3342 -22.4891 52.4956 -68.9262 0.580621 16.0466 -0.0818423 35.4661 0.134679 4.45705 -1.49203 13.5151 15.9777 0.0 0.0 0.0 7.74511 66.5487 -5.93339 -10.4062 0.286624 1.5691 5.71548 -29.5204 -1.04031 21.9927 -0.0 -0.0 -0.0 0.0 -0.0 -5.70755 48.2864 9.8428 7.81461 0.399702 1.13109 11.9369 -19.085 1.71846 10.695 -0.0 -0.0 0.0 0.0 0.0 
